<svg width="570" height="310" viewBox="0 0 570 310" fill="none" xmlns="http://www.w3.org/2000/svg">
<g clip-path="url(#clip0_528_2)">
<rect width="570" height="310" fill="white"/>
<path d="M519.994 252.036C520.61 192.71 472.129 185.724 465.636 137.341C451.576 32.5579 415.072 41.2927 318.325 45.9698C197.719 51.8004 195.856 17.6257 155.181 31.2253C87.5795 53.8258 144.667 92.0445 74.0077 179.375C38.2378 223.585 45.0885 273.773 77.1006 299H502.891C508.744 289.973 515.666 275.173 519.994 252.036Z" fill="#D7EBFF"/>
<g opacity="0.3">
<path d="M422.861 267.312C437.745 257.868 450.865 229.542 447.44 216.436C447.434 216.414 447.428 216.391 447.423 216.369C447.39 216.25 447.357 216.133 447.323 216.016C447.3 215.937 447.277 215.86 447.252 215.782C447.224 215.693 447.195 215.603 447.165 215.515C447.107 215.344 447.047 215.174 446.981 215.009C446.49 213.762 445.81 212.695 444.924 211.85C435.271 202.633 419.413 213.502 419.413 213.502C435.458 190.416 441.675 153.275 430.984 144.775C430.952 144.748 430.922 144.725 430.888 144.699C430.84 144.659 430.79 144.623 430.74 144.588C430.686 144.547 430.631 144.507 430.577 144.469C430.527 144.433 430.477 144.399 430.426 144.365C430.334 144.304 430.241 144.243 430.144 144.186C430.08 144.145 430.016 144.107 429.948 144.069C429.946 144.069 429.943 144.066 429.94 144.064C429.88 144.029 429.817 143.995 429.756 143.963C429.715 143.941 429.675 143.921 429.634 143.9C429.566 143.864 429.497 143.832 429.427 143.798C427.846 143.045 425.976 142.802 423.802 143.164C417.413 144.226 411.007 149.582 405.267 156.339C405.141 156.489 405.014 156.638 404.887 156.79C404.664 157.056 404.44 157.325 404.219 157.594C404.215 157.6 404.209 157.607 404.203 157.614C404.067 157.781 403.93 157.949 403.796 158.117C403.784 158.13 403.774 158.145 403.762 158.158C392.515 172.134 384.166 190.706 384.166 190.706C384.166 190.706 391.368 152.681 376.388 156.358C375.726 156.521 375.061 156.781 374.393 157.132C373.797 157.445 373.2 157.829 372.601 158.278C368.963 161.005 365.298 166.128 361.872 172.208C361.57 172.745 361.269 173.287 360.972 173.837C353.05 188.435 346.55 207.581 344.831 212.832H382.182C382.231 212.832 382.279 212.835 382.326 212.839C382.333 212.839 382.342 212.842 382.349 212.842C382.387 212.847 382.426 212.853 382.463 212.86C382.485 212.864 382.505 212.87 382.526 212.876C382.549 212.882 382.572 212.886 382.596 212.894C382.628 212.904 382.659 212.915 382.689 212.927C382.701 212.932 382.713 212.934 382.724 212.94C382.764 212.956 382.803 212.975 382.84 212.996C382.841 212.996 382.843 212.997 382.844 212.999C383.284 213.236 383.586 213.702 383.586 214.236V228.455C383.586 229.064 383.193 229.584 382.65 229.777C382.64 229.781 382.628 229.786 382.618 229.789C382.597 229.795 382.577 229.8 382.556 229.806C382.534 229.812 382.513 229.818 382.491 229.824C382.473 229.828 382.456 229.831 382.438 229.834C382.41 229.84 382.382 229.843 382.355 229.847C382.34 229.849 382.327 229.852 382.312 229.853C382.27 229.857 382.226 229.86 382.182 229.86H377.527C377.576 229.86 377.624 229.863 377.671 229.868C377.678 229.868 377.687 229.871 377.694 229.871C377.732 229.875 377.771 229.881 377.808 229.888C377.83 229.893 377.85 229.898 377.872 229.904C377.896 229.91 377.919 229.914 377.941 229.922C377.973 229.932 378.004 229.944 378.034 229.955C378.046 229.96 378.056 229.963 378.068 229.967C378.107 229.985 378.147 230.004 378.185 230.023C378.185 230.023 378.188 230.023 378.188 230.024C378.628 230.261 378.93 230.727 378.93 231.261V245.481C378.93 246.089 378.537 246.609 377.993 246.802C377.983 246.807 377.972 246.811 377.961 246.814C377.941 246.821 377.92 246.826 377.9 246.832C377.878 246.837 377.856 246.843 377.834 246.849C377.817 246.853 377.799 246.856 377.782 246.859C377.754 246.865 377.726 246.868 377.698 246.872C377.684 246.874 377.671 246.877 377.656 246.878C377.614 246.883 377.571 246.884 377.527 246.886H382.607C382.656 246.886 382.704 246.889 382.751 246.893C382.757 246.893 382.762 246.894 382.768 246.896C382.809 246.9 382.85 246.906 382.889 246.915C382.911 246.919 382.932 246.925 382.954 246.931C382.977 246.937 383.001 246.941 383.022 246.949C383.055 246.959 383.085 246.97 383.116 246.982C383.128 246.987 383.139 246.989 383.15 246.995C383.189 247.011 383.227 247.03 383.265 247.051C383.266 247.051 383.269 247.052 383.271 247.054C383.711 247.292 384.013 247.757 384.013 248.291V262.51C384.013 263.119 383.621 263.638 383.078 263.832C383.066 263.836 383.056 263.841 383.044 263.844C383.024 263.85 383.003 263.855 382.984 263.861C382.963 263.867 382.941 263.873 382.919 263.879C382.901 263.883 382.884 263.886 382.866 263.889C382.838 263.895 382.811 263.898 382.783 263.902C382.768 263.904 382.754 263.907 382.74 263.908C382.698 263.912 382.654 263.915 382.61 263.915H380.737C380.786 263.915 380.832 263.918 380.879 263.923C380.892 263.923 380.905 263.927 380.919 263.928C380.952 263.933 380.984 263.937 381.016 263.943C381.041 263.949 381.066 263.956 381.091 263.962C381.11 263.968 381.13 263.971 381.149 263.977C381.184 263.987 381.218 264 381.25 264.013C381.259 264.016 381.268 264.019 381.276 264.024C381.317 264.041 381.358 264.06 381.398 264.082C381.838 264.319 382.14 264.785 382.14 265.319V279.539C382.14 280.147 381.748 280.666 381.205 280.86C381.193 280.865 381.183 280.869 381.171 280.872C381.151 280.878 381.13 280.884 381.111 280.889C381.089 280.895 381.068 280.901 381.046 280.907C381.028 280.911 381.011 280.914 380.993 280.917C380.965 280.922 380.938 280.926 380.91 280.93C380.895 280.932 380.881 280.935 380.867 280.936C380.825 280.941 380.781 280.944 380.737 280.944H382.185C382.233 280.944 382.282 280.946 382.328 280.951C382.339 280.951 382.349 280.954 382.359 280.955C382.396 280.96 382.432 280.964 382.467 280.971C382.489 280.976 382.511 280.983 382.533 280.987C382.555 280.993 382.578 280.998 382.6 281.005C382.632 281.015 382.664 281.027 382.695 281.04C382.705 281.044 382.717 281.047 382.727 281.052C382.768 281.069 382.808 281.088 382.846 281.109C382.846 281.109 382.847 281.109 382.849 281.109C383.288 281.346 383.591 281.812 383.591 282.346V296.565C383.591 297.174 383.199 297.693 382.657 297.887C382.645 297.891 382.634 297.896 382.622 297.9C382.603 297.906 382.583 297.912 382.562 297.918C382.54 297.924 382.518 297.929 382.495 297.935C382.477 297.94 382.461 297.943 382.444 297.945C382.416 297.951 382.388 297.954 382.359 297.959C382.345 297.96 382.331 297.963 382.317 297.964C382.274 297.969 382.231 297.972 382.187 297.972H356.859L356.874 298.065H413.439C457.26 270.195 422.862 267.306 422.862 267.306L422.861 267.312Z" fill="#5C55EB"/>
<path d="M447.546 216.866C447.397 216.213 447.21 215.591 446.983 215.011L384.008 262.66C383.953 263.206 383.582 263.661 383.081 263.841C383.069 263.845 383.059 263.85 383.047 263.853C383.026 263.859 383.006 263.864 382.987 263.87C382.965 263.876 382.943 263.882 382.921 263.888C382.904 263.892 382.886 263.895 382.869 263.898C382.841 263.904 382.813 263.907 382.785 263.911C382.771 263.913 382.756 263.916 382.743 263.917C382.701 263.921 382.657 263.924 382.613 263.924H382.338L381.754 264.366C381.992 264.617 382.143 264.955 382.143 265.328V266.354L423.408 235.131L444.62 237.111C444.841 236.519 445.051 235.929 445.253 235.342L425.561 233.504L447.546 216.868V216.866Z" fill="#D2E6FA"/>
<path d="M382.417 246.893H382.613C382.661 246.893 382.71 246.896 382.756 246.9C382.762 246.9 382.768 246.901 382.774 246.903C382.815 246.907 382.856 246.913 382.895 246.922C382.917 246.926 382.938 246.932 382.96 246.938C382.983 246.944 383.006 246.948 383.028 246.956C383.06 246.966 383.091 246.977 383.122 246.989C383.133 246.994 383.145 246.996 383.155 247.002C383.195 247.018 383.233 247.037 383.271 247.058C383.272 247.058 383.275 247.059 383.277 247.061C383.604 247.238 383.852 247.539 383.96 247.901L430.989 144.777C430.956 144.751 430.926 144.728 430.892 144.701C430.844 144.662 430.794 144.625 430.745 144.59C430.691 144.549 430.635 144.51 430.581 144.472C430.531 144.435 430.482 144.402 430.431 144.368C430.338 144.307 430.245 144.245 430.149 144.188C430.084 144.147 430.02 144.109 429.953 144.071C429.95 144.071 429.947 144.068 429.944 144.067C429.884 144.032 429.821 143.998 429.76 143.966C429.719 143.944 429.68 143.924 429.639 143.903C429.57 143.867 429.501 143.834 429.431 143.801L410.728 184.812L405.271 156.344C405.146 156.493 405.018 156.642 404.891 156.794C404.668 157.06 404.446 157.329 404.224 157.598C404.219 157.604 404.213 157.611 404.208 157.618C404.072 157.785 403.934 157.953 403.8 158.121C403.788 158.134 403.778 158.149 403.766 158.162L409.422 187.673L382.416 246.893H382.417Z" fill="#D2E6FA"/>
<path d="M373.172 182.775L373.866 212.836H375.685L374.398 157.136V157.118C373.8 157.419 373.201 157.789 372.604 158.219V158.282L373.151 181.924L361.877 172.212C361.574 172.749 361.273 173.291 360.977 173.841L372.396 183.676L373.172 182.775Z" fill="#D2E6FA"/>
<path d="M359.121 297.978L359.079 298.071H361.079L361.121 297.978H359.121Z" fill="#D2E6FA"/>
</g>
<path d="M299.944 201.614H122V297.82H299.944V201.614Z" fill="white"/>
<path d="M299.944 201.614H122V213.4H299.944V201.614Z" fill="#82B4EB"/>
<path d="M130.224 209.546C131.26 209.546 132.1 208.705 132.1 207.668C132.1 206.631 131.26 205.791 130.224 205.791C129.188 205.791 128.348 206.631 128.348 207.668C128.348 208.705 129.188 209.546 130.224 209.546Z" fill="white"/>
<path d="M135.744 209.546C136.78 209.546 137.62 208.705 137.62 207.668C137.62 206.631 136.78 205.791 135.744 205.791C134.708 205.791 133.868 206.631 133.868 207.668C133.868 208.705 134.708 209.546 135.744 209.546Z" fill="white"/>
<path d="M141.264 209.546C142.3 209.546 143.14 208.705 143.14 207.668C143.14 206.631 142.3 205.791 141.264 205.791C140.228 205.791 139.388 206.631 139.388 207.668C139.388 208.705 140.228 209.546 141.264 209.546Z" fill="white"/>
<path opacity="0.5" d="M206.599 220.58H132.1V245.152H206.599V220.58Z" fill="#D2D7EB"/>
<path opacity="0.5" d="M206.599 252.297H132.1V290.498H206.599V252.297Z" fill="#D2D7EB"/>
<path opacity="0.5" d="M289.714 282.951H222.852V290.498H289.714V282.951Z" fill="#D2D7EB"/>
<path d="M233.685 267.252C229.383 262.065 227.029 255.554 227.029 248.776C227.029 245.421 227.597 242.134 228.718 239.007C229.8 235.984 231.373 233.177 233.392 230.662C237.15 225.98 242.313 222.558 248.04 220.925L251.43 235.38C245.716 237.3 241.832 242.63 241.832 248.776C241.832 251.854 242.826 254.818 244.653 257.255L233.687 267.254L233.685 267.252Z" fill="#969BC8"/>
<path d="M255.961 277.729C251.818 277.729 247.818 276.873 244.075 275.181C240.868 273.732 237.991 271.742 235.509 269.256L246.477 259.257C249.063 261.597 252.45 262.918 255.962 262.918C261.364 262.918 266.186 259.912 268.577 255.157L282.69 259.88C280.62 264.878 277.212 269.168 272.771 272.345C267.849 275.868 262.036 277.729 255.962 277.729H255.961Z" fill="#D2D7EB"/>
<path opacity="0.5" d="M269.56 252.631C269.913 251.384 270.092 250.093 270.092 248.778C270.092 240.983 263.754 234.639 255.962 234.639C255.326 234.639 254.692 234.681 254.065 234.766L250.674 220.31C252.412 219.989 254.185 219.827 255.962 219.827C263.689 219.827 270.955 222.839 276.42 228.307C281.884 233.775 284.894 241.046 284.894 248.778C284.894 251.699 284.463 254.571 283.609 257.331L269.56 252.631Z" fill="#D2D7EB"/>
<path d="M382.188 280.95H299.258C298.483 280.95 297.855 281.579 297.855 282.354V296.575C297.855 297.35 298.483 297.978 299.258 297.978H382.188C382.963 297.978 383.591 297.35 383.591 296.575V282.354C383.591 281.579 382.963 280.95 382.188 280.95Z" fill="#FFB41E"/>
<path d="M371.824 280.95H362.588V297.978H371.824V280.95Z" fill="#FFBE28"/>
<path d="M355.99 280.95H321.709V297.978H355.99V280.95Z" fill="#FFBE28"/>
<path d="M297.936 297.021C298.124 297.575 298.644 297.978 299.259 297.978H382.188C382.804 297.978 383.324 297.575 383.512 297.021H297.937H297.936Z" fill="#FAAA14"/>
<path d="M383.589 282.335C383.578 281.572 382.952 280.952 382.188 280.952H299.259C298.495 280.952 297.87 281.574 297.858 282.335H383.589Z" fill="#FFC832"/>
<path d="M380.741 263.922H297.81C297.035 263.922 296.407 264.55 296.407 265.325V279.547C296.407 280.322 297.035 280.95 297.81 280.95H380.741C381.515 280.95 382.143 280.322 382.143 279.547V265.325C382.143 264.55 381.515 263.922 380.741 263.922Z" fill="#FFB41E"/>
<path d="M370.374 263.922H361.139V280.95H370.374V263.922Z" fill="#FFBE28"/>
<path d="M354.542 263.922H320.262V280.95H354.542V263.922Z" fill="#FFBE28"/>
<path d="M296.488 279.992C296.676 280.546 297.196 280.95 297.811 280.95H380.741C381.356 280.95 381.876 280.546 382.064 279.992H296.489H296.488Z" fill="#FAAA14"/>
<path d="M382.14 265.307C382.129 264.544 381.503 263.924 380.739 263.924H297.81C297.046 263.924 296.42 264.545 296.409 265.307H382.14Z" fill="#FFC832"/>
<path d="M382.614 246.894H299.683C298.908 246.894 298.28 247.522 298.28 248.297V262.518C298.28 263.293 298.908 263.922 299.683 263.922H382.614C383.388 263.922 384.016 263.293 384.016 262.518V248.297C384.016 247.522 383.388 246.894 382.614 246.894Z" fill="#FFB41E"/>
<path d="M372.249 246.894H363.014V263.922H372.249V246.894Z" fill="#FFBE28"/>
<path d="M356.415 246.894H322.135V263.922H356.415V246.894Z" fill="#FFBE28"/>
<path d="M298.361 262.964C298.549 263.518 299.069 263.922 299.685 263.922H382.614C383.229 263.922 383.749 263.518 383.938 262.964H298.362H298.361Z" fill="#FAAA14"/>
<path d="M384.015 248.279C384.003 247.515 383.378 246.896 382.614 246.896H299.684C298.92 246.896 298.295 247.517 298.283 248.279H384.015Z" fill="#FFC832"/>
<path d="M377.533 229.865H294.603C293.828 229.865 293.2 230.494 293.2 231.269V245.49C293.2 246.265 293.828 246.893 294.603 246.893H377.533C378.308 246.893 378.936 246.265 378.936 245.49V231.269C378.936 230.494 378.308 229.865 377.533 229.865Z" fill="#FFB41E"/>
<path d="M367.167 229.865H357.932V246.893H367.167V229.865Z" fill="#FFBE28"/>
<path d="M351.334 229.865H317.053V246.893H351.334V229.865Z" fill="#FFBE28"/>
<path d="M293.279 245.936C293.468 246.49 293.988 246.893 294.603 246.893H377.532C378.147 246.893 378.667 246.49 378.856 245.936H293.281H293.279Z" fill="#FAAA14"/>
<path d="M378.933 231.25C378.921 230.487 378.296 229.867 377.532 229.867H294.603C293.839 229.867 293.213 230.489 293.202 231.25H378.933Z" fill="#FFC832"/>
<path d="M382.188 212.837H299.258C298.483 212.837 297.855 213.465 297.855 214.24V228.462C297.855 229.237 298.483 229.865 299.258 229.865H382.188C382.963 229.865 383.591 229.237 383.591 228.462V214.24C383.591 213.465 382.963 212.837 382.188 212.837Z" fill="#FFB41E"/>
<path d="M371.824 212.837H362.588V229.865H371.824V212.837Z" fill="#FFBE28"/>
<path d="M355.99 212.837H321.709V229.865H355.99V212.837Z" fill="#FFBE28"/>
<path d="M297.936 228.907C298.124 229.461 298.644 229.865 299.259 229.865H382.188C382.804 229.865 383.324 229.461 383.512 228.907H297.937H297.936Z" fill="#FAAA14"/>
<path d="M383.589 214.222C383.578 213.459 382.952 212.839 382.188 212.839H299.259C298.495 212.839 297.87 213.46 297.858 214.222H383.589Z" fill="#FFC832"/>
<path d="M329.372 289.479C342.004 276.839 342.004 256.345 329.372 243.704C316.74 231.064 296.259 231.064 283.627 243.704C270.995 256.345 270.995 276.839 283.627 289.479C296.259 302.12 316.74 302.12 329.372 289.479Z" fill="#FFD61D"/>
<path d="M324.474 284.58C334.401 274.646 334.401 258.54 324.474 248.606C314.546 238.671 298.451 238.671 288.523 248.606C278.596 258.54 278.596 274.646 288.523 284.58C298.451 294.514 314.546 294.514 324.474 284.58Z" fill="#FAAF1E"/>
<path d="M327.966 252.976C324.252 248.039 318.772 244.416 312.232 243.229C298.441 240.726 285.184 249.917 282.682 263.717C281.496 270.261 282.961 276.671 286.278 281.885C282.159 276.411 280.22 269.318 281.535 262.061C284.037 248.261 297.294 239.069 311.085 241.572C318.336 242.888 324.292 247.196 327.966 252.976Z" fill="#EB9F11"/>
<path d="M315.427 265.994C313.996 264.742 311.757 263.697 308.753 262.883L306.854 262.404C304.709 261.839 303.198 261.261 302.361 260.695C301.616 260.187 301.179 259.567 301.027 258.79C300.846 257.866 301.049 257.045 301.651 256.284C302.278 255.488 303.165 254.986 304.357 254.752C305.564 254.514 306.544 254.622 307.346 255.081C308.13 255.529 308.639 256.245 308.902 257.279L309.069 257.941L315.178 256.738L314.97 255.991C314.25 253.381 312.859 251.461 310.835 250.28C309.285 249.373 307.438 248.992 305.34 249.141L304.676 245.761L300.035 246.675L300.732 250.22C299.048 250.925 297.671 251.919 296.634 253.181C295.006 255.175 294.439 257.501 294.949 260.09C295.322 261.988 296.201 263.577 297.56 264.826C298.888 266.041 300.722 266.954 302.994 267.532L305.367 268.16C308.924 269.083 310.293 269.745 310.815 270.137C311.512 270.659 311.938 271.374 312.124 272.316C312.34 273.412 312.104 274.377 311.396 275.264C310.666 276.19 309.624 276.775 308.207 277.054C307.01 277.289 306.049 277.131 305.269 276.571C304.473 275.997 303.957 275.067 303.663 273.58L303.524 272.873L297.357 274.088L297.525 274.814C298.237 277.849 299.61 280.047 301.61 281.351C303.105 282.322 304.949 282.757 307.107 282.648L307.865 286.5L312.505 285.586L311.74 281.696C313.785 280.953 315.413 279.855 316.583 278.428C318.25 276.384 318.823 273.938 318.275 271.158C317.854 269.019 316.893 267.28 315.423 265.994H315.427Z" fill="#EB9F11"/>
<path d="M314.637 266.549C313.205 265.297 310.967 264.252 307.963 263.438L306.064 262.958C303.919 262.392 302.408 261.815 301.571 261.249C300.826 260.74 300.389 260.12 300.237 259.344C300.056 258.42 300.259 257.598 300.861 256.838C301.487 256.041 302.374 255.54 303.567 255.306C304.773 255.069 305.754 255.176 306.556 255.635C307.339 256.082 307.849 256.799 308.112 257.832L308.278 258.495L314.387 257.291L314.18 256.544C313.459 253.935 312.068 252.015 310.045 250.834C308.495 249.927 306.648 249.546 304.55 249.695L303.885 246.314L299.245 247.228L299.942 250.774C298.257 251.478 296.881 252.473 295.843 253.734C294.216 255.728 293.649 258.055 294.159 260.644C294.531 262.541 295.411 264.131 296.77 265.379C298.098 266.594 299.931 267.508 302.203 268.086L304.576 268.714C308.134 269.637 309.503 270.299 310.024 270.691C310.721 271.213 311.148 271.928 311.334 272.869C311.55 273.966 311.313 274.929 310.606 275.818C309.875 276.744 308.834 277.328 307.416 277.608C306.22 277.843 305.258 277.685 304.478 277.125C303.682 276.551 303.166 275.621 302.873 274.134L302.734 273.426L296.567 274.641L296.735 275.368C297.446 278.402 298.82 280.6 300.82 281.905C302.314 282.875 304.158 283.311 306.316 283.201L307.075 287.054L311.715 286.14L310.949 282.25C312.995 281.507 314.622 280.409 315.793 278.982C317.46 276.938 318.032 274.492 317.485 271.711C317.064 269.572 316.102 267.834 314.633 266.547L314.637 266.549Z" fill="#FFD61D"/>
<path opacity="0.15" d="M338.244 272.841C340.722 260.244 335.497 247.885 325.856 240.656C337.327 247.446 343.869 260.97 341.153 274.781C339.064 285.402 331.973 293.789 322.813 297.978H314.39C326.141 295.003 335.752 285.51 338.243 272.841H338.244Z" fill="#793D45"/>
<path d="M360.407 25H196.384V194.81H360.407V25Z" fill="white"/>
<path d="M360.407 25H196.384V41.5224H360.407V25Z" fill="#005EB8"/>
<path d="M228.071 70.2472H202.003V47.2627H228.071V70.2472ZM202.818 69.5279H227.256V47.982H202.818V69.5279Z" fill="#EBEBF5"/>
<path d="M253.324 70.2472H227.256V47.2627H253.324V70.2472ZM228.071 69.5279H252.509V47.982H228.071V69.5279Z" fill="#EBEBF5"/>
<path d="M278.576 70.2472H252.508V47.2627H278.576V70.2472ZM253.324 69.5279H277.761V47.982H253.324V69.5279Z" fill="#EBEBF5"/>
<path d="M303.829 70.2472H277.761V47.2627H303.829V70.2472ZM278.577 69.5279H303.014V47.982H278.577V69.5279Z" fill="#EBEBF5"/>
<path d="M329.082 70.2472H303.014V47.2627H329.082V70.2472ZM303.829 69.5279H328.267V47.982H303.829V69.5279Z" fill="#EBEBF5"/>
<path d="M354.335 70.2472H328.267V47.2627H354.335V70.2472ZM329.082 69.5279H353.52V47.982H329.082V69.5279Z" fill="#EBEBF5"/>
<path d="M228.071 92.5128H202.003V69.5283H228.071V92.5128ZM202.818 91.7935H227.256V70.2476H202.818V91.7935Z" fill="#EBEBF5"/>
<path d="M253.324 92.5128H227.256V69.5283H253.324V92.5128ZM228.071 91.7935H252.509V70.2476H228.071V91.7935Z" fill="#EBEBF5"/>
<path d="M278.576 92.5128H252.508V69.5283H278.576V92.5128ZM253.324 91.7935H277.761V70.2476H253.324V91.7935Z" fill="#EBEBF5"/>
<path d="M303.829 92.5128H277.761V69.5283H303.829V92.5128ZM278.577 91.7935H303.014V70.2476H278.577V91.7935Z" fill="#EBEBF5"/>
<path d="M329.082 92.5128H303.014V69.5283H329.082V92.5128ZM303.829 91.7935H328.267V70.2476H303.829V91.7935Z" fill="#EBEBF5"/>
<path d="M354.335 92.5128H328.267V69.5283H354.335V92.5128ZM329.082 91.7935H353.52V70.2476H329.082V91.7935Z" fill="#EBEBF5"/>
<path d="M228.071 114.777H202.003V91.793H228.071V114.777ZM202.818 114.058H227.256V92.5123H202.818V114.058Z" fill="#EBEBF5"/>
<path d="M253.324 114.777H227.256V91.793H253.324V114.777ZM228.071 114.058H252.509V92.5123H228.071V114.058Z" fill="#EBEBF5"/>
<path d="M278.576 114.777H252.508V91.793H278.576V114.777ZM253.324 114.058H277.761V92.5123H253.324V114.058Z" fill="#EBEBF5"/>
<path d="M303.829 114.777H277.761V91.793H303.829V114.777ZM278.577 114.058H303.014V92.5123H278.577V114.058Z" fill="#EBEBF5"/>
<path d="M329.082 114.777H303.014V91.793H329.082V114.777ZM303.829 114.058H328.267V92.5123H303.829V114.058Z" fill="#EBEBF5"/>
<path d="M354.335 114.777H328.267V91.793H354.335V114.777ZM329.082 114.058H353.52V92.5123H329.082V114.058Z" fill="#EBEBF5"/>
<path d="M228.071 137.043H202.003V114.059H228.071V137.043ZM202.818 136.324H227.256V114.778H202.818V136.324Z" fill="#EBEBF5"/>
<path d="M253.324 137.043H227.256V114.059H253.324V137.043ZM228.071 136.324H252.509V114.778H228.071V136.324Z" fill="#EBEBF5"/>
<path d="M278.576 137.043H252.508V114.059H278.576V137.043ZM253.324 136.324H277.761V114.778H253.324V136.324Z" fill="#EBEBF5"/>
<path d="M303.829 137.043H277.761V114.059H303.829V137.043ZM278.577 136.324H303.014V114.778H278.577V136.324Z" fill="#EBEBF5"/>
<path d="M329.082 137.043H303.014V114.059H329.082V137.043ZM303.829 136.324H328.267V114.778H303.829V136.324Z" fill="#EBEBF5"/>
<path d="M354.335 137.043H328.267V114.059H354.335V137.043ZM329.082 136.324H353.52V114.778H329.082V136.324Z" fill="#EBEBF5"/>
<path d="M228.071 159.31H202.003V136.325H228.071V159.31ZM202.818 158.59H227.256V137.045H202.818V158.59Z" fill="#EBEBF5"/>
<path d="M253.324 159.31H227.256V136.325H253.324V159.31ZM228.071 158.59H252.509V137.045H228.071V158.59Z" fill="#EBEBF5"/>
<path d="M278.576 159.31H252.508V136.325H278.576V159.31ZM253.324 158.59H277.761V137.045H253.324V158.59Z" fill="#EBEBF5"/>
<path d="M303.829 159.31H277.761V136.325H303.829V159.31ZM278.577 158.59H303.014V137.045H278.577V158.59Z" fill="#EBEBF5"/>
<path d="M329.082 159.31H303.014V136.325H329.082V159.31ZM303.829 158.59H328.267V137.045H303.829V158.59Z" fill="#EBEBF5"/>
<path d="M354.335 159.31H328.267V136.325H354.335V159.31ZM329.082 158.59H353.52V137.045H329.082V158.59Z" fill="#EBEBF5"/>
<path d="M228.071 181.574H202.003V158.59H228.071V181.574ZM202.818 180.855H227.256V159.309H202.818V180.855Z" fill="#EBEBF5"/>
<path d="M253.324 181.574H227.256V158.59H253.324V181.574ZM228.071 180.855H252.509V159.309H228.071V180.855Z" fill="#EBEBF5"/>
<path d="M278.576 181.574H252.508V158.59H278.576V181.574ZM253.324 180.855H277.761V159.309H253.324V180.855Z" fill="#EBEBF5"/>
<path d="M303.829 181.574H277.761V158.59H303.829V181.574ZM278.577 180.855H303.014V159.309H278.577V180.855Z" fill="#EBEBF5"/>
<path d="M329.082 181.574H303.014V158.59H329.082V181.574ZM303.829 180.855H328.267V159.309H303.829V180.855Z" fill="#EBEBF5"/>
<path d="M354.335 181.574H328.267V158.59H354.335V181.574ZM329.082 180.855H353.52V159.309H329.082V180.855Z" fill="#EBEBF5"/>
<path d="M248.48 156.05H238.69V181.574H248.48V156.05Z" fill="#F09252"/>
<path d="M232.152 168.812H222.361V181.575H232.152V168.812Z" fill="#E6437B"/>
<path d="M265.886 118.366H256.096V181.573H265.886V118.366Z" fill="#E6437B"/>
<path d="M283.291 136.324H273.501V181.574H283.291V136.324Z" fill="#F09252"/>
<path d="M300.697 99.1787H290.907V181.574H300.697V99.1787Z" fill="#E6437B"/>
<path d="M333.977 79.2383H324.187V181.574H333.977V79.2383Z" fill="#E6437B"/>
<path d="M318.103 109.905H308.312V181.574H318.103V109.905Z" fill="#F09252"/>
<path d="M321.251 56.8169L324.924 60.8477L269.994 102.97L256.164 92.255L222.594 117.69C221.943 118.183 221.815 119.109 222.307 119.76C222.598 120.145 223.039 120.346 223.485 120.346C223.796 120.346 224.109 120.25 224.375 120.047L256.144 95.9773L269.984 106.701L326.92 63.0393L327.121 63.26L330.479 66.9443L335.147 54.2773L321.251 56.8154V56.8169Z" fill="#64C86E"/>
<path d="M224.843 261.245C223.352 259.89 213.97 256.888 212.4 256.393C211.665 256.904 209.419 257.862 207.705 257.871C205.013 257.885 203.007 257.296 201.909 256.872C199.794 260.015 201.199 266.467 201.199 266.467L225.771 266.921C225.771 266.921 226.473 262.725 224.843 261.245Z" fill="#321E19"/>
<path d="M217.982 181.392C216.841 180.989 213.551 180.456 209.374 179.894C209.235 179.955 209.087 179.99 208.938 179.99H166.416C169.246 180.698 174.069 181.803 178.305 182.283C178.959 182.357 179.624 182.41 180.327 182.467C186.532 182.964 193.567 183.527 194.439 199.033C194.464 199.479 194.587 201.018 194.614 201.492C198.946 201.564 204.186 201.453 204.186 201.453C199.77 212.988 201.785 251.964 201.908 256.872C201.909 256.951 201.914 257.027 201.921 257.102C203.02 257.526 205.021 258.109 207.704 258.096C209.105 258.089 210.861 257.448 211.856 256.934C212.11 256.738 212.297 256.553 212.397 256.393C214.043 253.733 221.66 201.885 223.131 194.4C224.602 186.914 222.149 182.864 217.981 181.392H217.982Z" fill="#0F232D"/>
<path d="M212.254 262.346C210.762 260.99 201.38 257.989 199.81 257.493C199.075 258.005 196.829 258.962 195.115 258.971C192.423 258.986 190.417 258.397 189.32 257.973C187.204 261.116 188.609 267.296 188.609 267.296L213.181 267.749C213.181 267.749 213.883 263.827 212.254 262.346Z" fill="#422E27"/>
<path d="M141.306 188.734C141.306 188.734 146.008 182.352 164.034 179.162C164.034 179.162 171.828 181.348 178.326 182.085C184.827 182.822 193.656 181.593 194.636 199.019C195.616 216.445 198.572 253.201 199.808 257.492C199.832 257.574 199.849 257.654 199.862 257.733C199.845 257.727 199.826 257.721 199.808 257.715C199.073 258.227 196.828 259.185 195.114 259.193C192.596 259.207 190.678 258.693 189.543 258.28C189.461 258.18 189.386 258.078 189.318 257.971C187.762 255.524 177.178 217.549 173.026 206.264C173.015 206.151 172.89 205.881 172.844 205.857C169.228 201.669 146.638 201.613 146.638 201.613C140.342 197.353 141.305 188.733 141.305 188.733L141.306 188.734Z" fill="#142832"/>
<path d="M149.406 179.792C149.294 179.39 149.053 178.175 150.067 177.624C151.387 176.906 154.229 176.906 156.108 176.906H164.747L171.299 148.752C171.394 148.347 171.825 148.003 172.241 148.003H183.544L183.533 147.806C178.296 137.149 175.47 131.974 170.76 129.31C168.041 127.931 165.222 126.96 163.187 126.628C158.361 125.842 153.453 126.93 153.453 126.93C150.536 127.491 141.666 128.38 136.393 134.903C129.96 142.861 126.285 163.759 125.387 167.241C124.488 170.722 125.162 174.991 134.815 174.991H142.551L141.352 188.68C141.828 188.089 146.34 182.93 160.832 179.793H149.408L149.406 179.792Z" fill="#005EB8"/>
<path d="M140.202 164.405C140.202 164.405 144.385 145.773 145.01 145.537C145.634 145.303 143.282 165.083 143.282 165.083L140.202 164.405Z" fill="#0047BA"/>
<path d="M166.11 170.092C163.877 169.319 161.724 170.804 161.724 170.804L160.003 170.405C160.003 170.405 157.613 172.053 159.105 175.335L165.132 175.106L166.109 170.092H166.11Z" fill="#FF9860"/>
<path d="M216.428 147.806H172.24C171.731 147.806 171.221 148.211 171.106 148.706L164.59 176.708H156.108C154.162 176.708 151.338 176.708 149.973 177.451C148.607 178.194 149.262 179.989 149.262 179.989H208.938C209.447 179.989 209.957 179.584 210.072 179.089L217.142 148.706C217.258 148.211 216.936 147.806 216.428 147.806Z" fill="#B2B2B2"/>
<path d="M192.793 167.107C194.678 166.536 195.743 164.544 195.172 162.657C194.601 160.771 192.61 159.705 190.725 160.276C188.84 160.847 187.775 162.84 188.346 164.726C188.917 166.613 190.908 167.679 192.793 167.107Z" fill="#BEBEBE"/>
<path d="M177.239 93.3497C176.376 93.0148 174.202 94.1011 173.457 93.7239C172.712 93.3467 165.509 91.2516 164.575 91.9271C163.641 92.6026 159.759 95.5135 157.28 94.5222C154.801 93.5309 154.491 96.9024 154.491 96.9024C154.491 96.9024 151.068 96.1977 151.835 100.003C151.852 100.088 150.507 100 149.553 101.962C147.491 106.207 152.279 111.992 152.279 111.992C152.279 111.992 152.337 112.026 152.441 112.084C152.479 111.249 152.722 110.498 153.147 110.008C153.487 109.615 153.909 109.438 154.368 109.495C154.47 109.508 154.574 109.533 154.679 109.568C156.602 110.223 156.929 111.917 156.953 112.868C156.96 113.144 157.114 113.194 157.178 113.203C157.241 113.21 157.34 113.195 157.452 113.08C157.742 112.781 158.092 111.817 157.87 110.387C157.733 109.502 157.932 109.357 158.367 109.039C158.862 108.676 159.603 108.134 160.236 106.201C160.865 106.486 163.257 107.498 166.312 107.882C168.345 108.138 170.612 107.996 172.402 107.613C172.582 107.521 172.761 107.428 172.944 107.331C180.125 103.495 178.104 93.6859 177.241 93.3511L177.239 93.3497Z" fill="#321E28"/>
<path d="M175.127 106.633C175.039 106.359 174.917 106.165 174.77 106.027C174.237 106.498 173.629 106.926 172.932 107.298C172.751 107.394 172.572 107.488 172.39 107.58C172.26 107.608 172.265 107.644 172.401 107.611C172.273 108.215 171.951 109.884 171.726 112.178C172.623 111.358 175.692 108.387 175.125 106.631L175.127 106.633Z" fill="#28141E"/>
<path d="M160.119 105.79C158.912 109.666 157.328 108.172 157.657 110.286C157.987 112.4 157.054 113.413 157.038 112.779C157.022 112.144 156.873 110.049 154.623 109.28C152.84 108.673 151.629 111.129 152.337 113.733C152.757 115.27 154.631 115.612 154.631 115.612L153.454 126.929C153.454 126.929 154.865 131.472 159.819 131.77C164.774 132.069 164.089 127.169 164.089 127.169L163.957 124.899C164.096 124.902 164.235 124.896 164.374 124.883C164.393 124.881 164.413 124.88 164.432 124.875C164.444 124.875 164.461 124.872 164.482 124.869C164.965 124.808 165.446 124.652 165.918 124.418C165.922 124.415 165.924 124.415 165.927 124.413C166.025 124.365 166.12 124.314 166.216 124.258H166.219V124.254C166.32 124.197 166.42 124.137 166.52 124.07C169.357 122.238 171.708 117.739 171.867 114.52C172.081 110.23 172.783 107.232 172.783 107.232C166.377 108.881 160.122 105.791 160.122 105.791L160.119 105.79Z" fill="#FF9860"/>
<path d="M163.589 124.874C161.616 124.626 159.701 123.273 158.151 121.64C157.632 121.093 157.156 120.516 156.73 119.938C157.986 124.876 162.252 125.847 164.023 126.037L163.957 124.899C163.834 124.898 163.711 124.889 163.589 124.873V124.874Z" fill="#F48146"/>
<path d="M163.58 113.385C163.462 113.793 163.101 114.053 162.773 113.968C162.446 113.883 162.275 113.483 162.393 113.075C162.512 112.667 162.873 112.407 163.2 112.492C163.527 112.576 163.698 112.977 163.58 113.385Z" fill="#1C1A1C"/>
<path d="M168.668 114.094C168.671 114.499 168.952 114.831 169.295 114.836C169.639 114.84 169.915 114.515 169.912 114.11C169.909 113.705 169.628 113.374 169.285 113.369C168.942 113.365 168.666 113.689 168.668 114.094Z" fill="#1C1A1C"/>
<path d="M161.251 110.989C161.325 110.834 162.031 110.327 163.193 110.387C164.354 110.447 164.936 110.786 164.866 111.134C164.791 111.51 163.475 111.081 162.361 111.213C161.248 111.344 161.222 111.05 161.251 110.989Z" fill="#321E28"/>
<path d="M171.86 112.432C171.829 112.264 171.274 111.581 170.137 111.332C169.001 111.084 168.343 111.236 168.32 111.59C168.293 111.973 169.638 111.904 170.676 112.324C171.715 112.745 171.872 112.498 171.86 112.43V112.432Z" fill="#321E28"/>
<path d="M165.643 118.845C165.462 118.82 165.297 118.773 165.166 118.701C164.914 118.562 164.8 118.35 164.835 118.086C164.842 118.036 164.887 118.001 164.939 118.007C164.988 118.014 165.023 118.059 165.017 118.111C164.991 118.298 165.07 118.438 165.256 118.54C165.73 118.799 166.741 118.694 167.154 118.342C167.419 118.115 167.132 117.162 166.853 116.239C166.571 115.308 166.28 114.344 166.41 113.757C166.42 113.707 166.47 113.676 166.519 113.687C166.569 113.697 166.6 113.746 166.59 113.796C166.47 114.336 166.755 115.276 167.029 116.185C167.352 117.252 167.631 118.175 167.275 118.479C166.921 118.78 166.207 118.919 165.646 118.843L165.643 118.845Z" fill="#F48146"/>
<path d="M162.797 120.137C162.797 120.137 164.1 120.697 165.099 120.834C166.099 120.972 167.225 120.744 167.624 120.799C168.023 120.853 166.352 121.861 164.984 121.674C163.732 121.503 162.015 119.906 162.797 120.137Z" fill="#F48146"/>
<path d="M0.511259 298.081H569.489C569.771 298.081 570 298.31 570 298.592V299.081C570 299.363 569.771 299.592 569.489 299.592H0.511259C0.228584 299.592 0 299.363 0 299.081V298.592C0 298.31 0.228584 298.081 0.511259 298.081Z" fill="#005EB8"/>
</g>
<defs>
<clipPath id="clip0_528_2">
<rect width="570" height="310" fill="white"/>
</clipPath>
</defs>
</svg>
