<svg xmlns="http://www.w3.org/2000/svg" xmlns:xlink="http://www.w3.org/1999/xlink" zoomAndPan="magnify" preserveAspectRatio="xMidYMid meet" version="1.0" viewBox="150 125.05 1310.64 1250.36"><defs><clipPath id="b545ed0a35"><path d="M 568 201 L 1385 201 L 1385 1299 L 568 1299 Z M 568 201 " clip-rule="nonzero"/></clipPath><clipPath id="a718913297"><path d="M 1104.460938 125.046875 L 1460.636719 334.707031 L 848.042969 1375.40625 L 491.867188 1165.75 Z M 1104.460938 125.046875 " clip-rule="nonzero"/></clipPath><clipPath id="e6494a27e6"><path d="M 1282.550781 229.875 C 1329.78125 257.679688 1364.035156 303.105469 1377.773438 356.164062 C 1391.511719 409.21875 1383.609375 465.5625 1355.808594 512.792969 L 953.140625 1196.867188 C 925.335938 1244.097656 879.910156 1278.351562 826.851562 1292.089844 C 773.796875 1305.828125 717.453125 1297.925781 670.222656 1270.125 C 622.988281 1242.320312 588.738281 1196.894531 575 1143.839844 C 561.261719 1090.78125 569.160156 1034.4375 596.964844 987.207031 L 999.632812 303.136719 C 1027.433594 255.902344 1072.863281 221.652344 1125.917969 207.910156 C 1178.976562 194.171875 1235.316406 202.074219 1282.550781 229.875 Z M 1282.550781 229.875 " clip-rule="nonzero"/></clipPath><clipPath id="06c9fceaf6"><path d="M 0 0 L 817 0 L 817 1098 L 0 1098 Z M 0 0 " clip-rule="nonzero"/></clipPath><clipPath id="58859caa4e"><path d="M 536.460938 -75.953125 L 892.636719 133.707031 L 280.042969 1174.40625 L -76.132812 964.75 Z M 536.460938 -75.953125 " clip-rule="nonzero"/></clipPath><clipPath id="1d91b379cb"><path d="M 714.550781 28.875 C 761.78125 56.679688 796.035156 102.105469 809.773438 155.164062 C 823.511719 208.21875 815.609375 264.5625 787.808594 311.792969 L 385.140625 995.867188 C 357.335938 1043.097656 311.910156 1077.351562 258.851562 1091.089844 C 205.796875 1104.828125 149.453125 1096.925781 102.222656 1069.125 C 54.988281 1041.320312 20.738281 995.894531 7 942.839844 C -6.738281 889.78125 1.160156 833.4375 28.964844 786.207031 L 431.632812 102.136719 C 459.433594 54.902344 504.863281 20.652344 557.917969 6.910156 C 610.976562 -6.828125 667.316406 1.074219 714.550781 28.875 Z M 714.550781 28.875 " clip-rule="nonzero"/></clipPath><clipPath id="d8a9b43965"><rect x="0" width="817" y="0" height="1098"/></clipPath><clipPath id="72f3f5f4f2"><path d="M 150 200.300781 L 575.800781 200.300781 L 575.800781 626.105469 L 150 626.105469 Z M 150 200.300781 " clip-rule="nonzero"/></clipPath><clipPath id="6ad052f39b"><path d="M 362.902344 200.300781 C 245.320312 200.300781 150 295.621094 150 413.203125 C 150 530.785156 245.320312 626.105469 362.902344 626.105469 C 480.484375 626.105469 575.800781 530.785156 575.800781 413.203125 C 575.800781 295.621094 480.484375 200.300781 362.902344 200.300781 Z M 362.902344 200.300781 " clip-rule="nonzero"/></clipPath><clipPath id="17327ba026"><path d="M 0 0.300781 L 425.800781 0.300781 L 425.800781 426.105469 L 0 426.105469 Z M 0 0.300781 " clip-rule="nonzero"/></clipPath><clipPath id="88e03604d5"><path d="M 212.902344 0.300781 C 95.320312 0.300781 0 95.621094 0 213.203125 C 0 330.785156 95.320312 426.105469 212.902344 426.105469 C 330.484375 426.105469 425.800781 330.785156 425.800781 213.203125 C 425.800781 95.621094 330.484375 0.300781 212.902344 0.300781 Z M 212.902344 0.300781 " clip-rule="nonzero"/></clipPath><clipPath id="4f5ecd7a63"><rect x="0" width="426" y="0" height="427"/></clipPath></defs><g clip-path="url(#b545ed0a35)"><g clip-path="url(#a718913297)"><g clip-path="url(#e6494a27e6)"><g transform="matrix(1, 0, 0, 1, 568, 201)"><g clip-path="url(#d8a9b43965)"><g clip-path="url(#06c9fceaf6)"><g clip-path="url(#58859caa4e)"><g clip-path="url(#1d91b379cb)"><path fill="#1b17ff" d="M 536.460938 -75.953125 L 892.636719 133.707031 L 280.042969 1174.40625 L -76.132812 964.746094 Z M 536.460938 -75.953125 " fill-opacity="1" fill-rule="nonzero"/></g></g></g></g></g></g></g></g><g clip-path="url(#72f3f5f4f2)"><g clip-path="url(#6ad052f39b)"><g transform="matrix(1, 0, 0, 1, 150, 200)"><g clip-path="url(#4f5ecd7a63)"><g clip-path="url(#17327ba026)"><g clip-path="url(#88e03604d5)"><path fill="#1b17ff" d="M 0 0.300781 L 425.800781 0.300781 L 425.800781 426.105469 L 0 426.105469 Z M 0 0.300781 " fill-opacity="1" fill-rule="nonzero"/></g></g></g></g></g></g></svg>