<svg xmlns="http://www.w3.org/2000/svg" xmlns:xlink="http://www.w3.org/1999/xlink" zoomAndPan="magnify" preserveAspectRatio="xMidYMid meet" version="1.0" viewBox="212.26 628.22 1132.14 217.39"><defs><g/><clipPath id="f1d24a6ebb"><path d="M 285 641 L 427 641 L 427 833 L 285 833 Z M 285 641 " clip-rule="nonzero"/></clipPath><clipPath id="8244061401"><path d="M 378.207031 628.21875 L 440.136719 664.671875 L 333.625 845.613281 L 271.699219 809.164062 Z M 378.207031 628.21875 " clip-rule="nonzero"/></clipPath><clipPath id="62cd485c96"><path d="M 409.171875 646.445312 C 417.382812 651.28125 423.339844 659.179688 425.726562 668.402344 C 428.117188 677.628906 426.742188 687.425781 421.910156 695.636719 L 351.898438 814.574219 C 347.066406 822.785156 339.167969 828.742188 329.941406 831.128906 C 320.714844 833.519531 310.921875 832.144531 302.707031 827.308594 C 294.496094 822.476562 288.542969 814.578125 286.152344 805.351562 C 283.765625 796.128906 285.136719 786.332031 289.972656 778.121094 L 359.980469 659.183594 C 364.816406 650.972656 372.714844 645.015625 381.9375 642.628906 C 391.164062 640.238281 400.960938 641.613281 409.171875 646.445312 Z M 409.171875 646.445312 " clip-rule="nonzero"/></clipPath><clipPath id="5d5856c389"><path d="M 0 0 L 142 0 L 142 192 L 0 192 Z M 0 0 " clip-rule="nonzero"/></clipPath><clipPath id="6e557a4a84"><path d="M 93.207031 -12.78125 L 155.136719 23.671875 L 48.625 204.613281 L -13.300781 168.164062 Z M 93.207031 -12.78125 " clip-rule="nonzero"/></clipPath><clipPath id="dd3b1539e4"><path d="M 124.171875 5.445312 C 132.382812 10.28125 138.339844 18.179688 140.726562 27.402344 C 143.117188 36.628906 141.742188 46.425781 136.910156 54.636719 L 66.898438 173.574219 C 62.066406 181.785156 54.167969 187.742188 44.941406 190.128906 C 35.714844 192.519531 25.921875 191.144531 17.707031 186.308594 C 9.496094 181.476562 3.542969 173.578125 1.152344 164.351562 C -1.234375 155.128906 0.136719 145.332031 4.972656 137.121094 L 74.980469 18.183594 C 79.816406 9.972656 87.714844 4.015625 96.9375 1.628906 C 106.164062 -0.761719 115.960938 0.613281 124.171875 5.445312 Z M 124.171875 5.445312 " clip-rule="nonzero"/></clipPath><clipPath id="1a1bd596ab"><rect x="0" width="142" y="0" height="192"/></clipPath><clipPath id="900f271ede"><path d="M 212.261719 641.300781 L 286.292969 641.300781 L 286.292969 715.335938 L 212.261719 715.335938 Z M 212.261719 641.300781 " clip-rule="nonzero"/></clipPath><clipPath id="51e4174308"><path d="M 249.277344 641.300781 C 228.832031 641.300781 212.261719 657.875 212.261719 678.316406 C 212.261719 698.761719 228.832031 715.335938 249.277344 715.335938 C 269.71875 715.335938 286.292969 698.761719 286.292969 678.316406 C 286.292969 657.875 269.71875 641.300781 249.277344 641.300781 Z M 249.277344 641.300781 " clip-rule="nonzero"/></clipPath><clipPath id="86736c1260"><path d="M 0.261719 0.300781 L 74.292969 0.300781 L 74.292969 74.335938 L 0.261719 74.335938 Z M 0.261719 0.300781 " clip-rule="nonzero"/></clipPath><clipPath id="3bd7a4395d"><path d="M 37.277344 0.300781 C 16.832031 0.300781 0.261719 16.875 0.261719 37.316406 C 0.261719 57.761719 16.832031 74.335938 37.277344 74.335938 C 57.71875 74.335938 74.292969 57.761719 74.292969 37.316406 C 74.292969 16.875 57.71875 0.300781 37.277344 0.300781 Z M 37.277344 0.300781 " clip-rule="nonzero"/></clipPath><clipPath id="481c845b3b"><rect x="0" width="75" y="0" height="75"/></clipPath></defs><g clip-path="url(#f1d24a6ebb)"><g clip-path="url(#8244061401)"><g clip-path="url(#62cd485c96)"><g transform="matrix(1, 0, 0, 1, 285, 641)"><g clip-path="url(#1a1bd596ab)"><g clip-path="url(#5d5856c389)"><g clip-path="url(#6e557a4a84)"><g clip-path="url(#dd3b1539e4)"><path fill="#1b17ff" d="M 93.207031 -12.78125 L 155.136719 23.671875 L 48.625 204.613281 L -13.300781 168.164062 Z M 93.207031 -12.78125 " fill-opacity="1" fill-rule="nonzero"/></g></g></g></g></g></g></g></g><g clip-path="url(#900f271ede)"><g clip-path="url(#51e4174308)"><g transform="matrix(1, 0, 0, 1, 212, 641)"><g clip-path="url(#481c845b3b)"><g clip-path="url(#86736c1260)"><g clip-path="url(#3bd7a4395d)"><path fill="#1b17ff" d="M 0.261719 0.300781 L 74.292969 0.300781 L 74.292969 74.335938 L 0.261719 74.335938 Z M 0.261719 0.300781 " fill-opacity="1" fill-rule="nonzero"/></g></g></g></g></g></g><g fill="#000000" fill-opacity="1"><g transform="translate(480.34684, 796.124911)"><g><path d="M 53.53125 2.546875 C 45.4375 2.546875 38.429688 1.476562 32.515625 -0.65625 C 26.597656 -2.800781 21.71875 -5.660156 17.875 -9.234375 C 14.039062 -12.804688 11.203125 -16.800781 9.359375 -21.21875 C 7.515625 -25.644531 6.59375 -30.113281 6.59375 -34.625 L 22.15625 -34.625 C 22.15625 -30.46875 23.398438 -26.570312 25.890625 -22.9375 C 28.378906 -19.300781 31.953125 -16.367188 36.609375 -14.140625 C 41.265625 -11.921875 46.875 -10.8125 53.4375 -10.8125 C 63.632812 -10.8125 71.457031 -12.671875 76.90625 -16.390625 C 82.351562 -20.109375 85.078125 -25.660156 85.078125 -33.046875 C 85.078125 -37.734375 83.710938 -41.507812 80.984375 -44.375 C 78.265625 -47.25 74.5625 -49.492188 69.875 -51.109375 C 65.1875 -52.722656 59.851562 -53.96875 53.875 -54.84375 C 49.894531 -55.488281 45.820312 -56.320312 41.65625 -57.34375 C 37.5 -58.375 33.515625 -59.707031 29.703125 -61.34375 C 25.898438 -62.988281 22.488281 -65.023438 19.46875 -67.453125 C 16.445312 -69.890625 14.054688 -72.878906 12.296875 -76.421875 C 10.546875 -79.960938 9.671875 -84.140625 9.671875 -88.953125 C 9.671875 -93.398438 10.472656 -97.628906 12.078125 -101.640625 C 13.691406 -105.660156 16.226562 -109.207031 19.6875 -112.28125 C 23.144531 -115.351562 27.613281 -117.769531 33.09375 -119.53125 C 38.570312 -121.289062 45.207031 -122.171875 53 -122.171875 C 62.375 -122.171875 70.253906 -120.71875 76.640625 -117.8125 C 83.023438 -114.914062 87.859375 -110.914062 91.140625 -105.8125 C 94.421875 -100.71875 96.0625 -94.832031 96.0625 -88.15625 L 80.421875 -88.15625 C 80.421875 -92.132812 79.363281 -95.644531 77.25 -98.6875 C 75.144531 -101.738281 72.039062 -104.128906 67.9375 -105.859375 C 63.832031 -107.585938 58.796875 -108.453125 52.828125 -108.453125 C 47.429688 -108.453125 42.945312 -107.894531 39.375 -106.78125 C 35.800781 -105.675781 32.988281 -104.195312 30.9375 -102.34375 C 28.882812 -100.5 27.414062 -98.40625 26.53125 -96.0625 C 25.65625 -93.71875 25.21875 -91.316406 25.21875 -88.859375 C 25.21875 -84.703125 26.519531 -81.257812 29.125 -78.53125 C 31.738281 -75.800781 35.535156 -73.613281 40.515625 -71.96875 C 45.492188 -70.332031 51.5625 -69.019531 58.71875 -68.03125 C 62.695312 -67.382812 66.691406 -66.53125 70.703125 -65.46875 C 74.722656 -64.414062 78.535156 -63.054688 82.140625 -61.390625 C 85.742188 -59.722656 88.953125 -57.613281 91.765625 -55.0625 C 94.578125 -52.507812 96.785156 -49.429688 98.390625 -45.828125 C 100.003906 -42.234375 100.8125 -37.972656 100.8125 -33.046875 C 100.8125 -25.609375 98.90625 -19.222656 95.09375 -13.890625 C 91.289062 -8.554688 85.859375 -4.484375 78.796875 -1.671875 C 71.734375 1.140625 63.3125 2.546875 53.53125 2.546875 Z M 53.53125 2.546875 "/></g></g></g><g fill="#000000" fill-opacity="1"><g transform="translate(576.869723, 796.124911)"><g><path d="M 45.875 0 L 32 0 L 1.140625 -89.65625 L 17.40625 -89.65625 L 38.671875 -24.875 L 40.34375 -19.515625 L 40.515625 -19.515625 L 42.28125 -24.78125 L 62.671875 -89.65625 L 74.265625 -89.65625 L 94.046875 -25.921875 L 96.0625 -19.515625 L 96.328125 -19.515625 L 98.703125 -26.1875 L 119.53125 -89.65625 L 135.53125 -89.65625 L 104.671875 0 L 90.4375 0 L 68.296875 -67.15625 L 68.203125 -67.15625 Z M 45.875 0 "/></g></g></g><g fill="#000000" fill-opacity="1"><g transform="translate(703.099633, 796.124911)"><g><path d="M 21.96875 -107.140625 C 18.863281 -107.140625 16.390625 -108.078125 14.546875 -109.953125 C 12.703125 -111.828125 11.78125 -114.113281 11.78125 -116.8125 C 11.78125 -119.445312 12.703125 -121.703125 14.546875 -123.578125 C 16.390625 -125.453125 18.894531 -126.390625 22.0625 -126.390625 C 25.28125 -126.390625 27.8125 -125.453125 29.65625 -123.578125 C 31.507812 -121.703125 32.4375 -119.445312 32.4375 -116.8125 C 32.4375 -114.113281 31.507812 -111.828125 29.65625 -109.953125 C 27.8125 -108.078125 25.25 -107.140625 21.96875 -107.140625 Z M 29.625 0 L 14.5 0 L 14.5 -89.65625 L 29.625 -89.65625 Z M 29.625 0 "/></g></g></g><g fill="#000000" fill-opacity="1"><g transform="translate(736.780714, 796.124911)"><g><path d="M 36.296875 0 L 21.09375 0 L 21.09375 -76.46875 L 1.9375 -76.46875 L 1.9375 -89.65625 L 21.09375 -89.65625 L 21.09375 -95.984375 C 21.09375 -99.609375 21.617188 -103.117188 22.671875 -106.515625 C 23.734375 -109.921875 25.332031 -112.96875 27.46875 -115.65625 C 29.601562 -118.351562 32.328125 -120.492188 35.640625 -122.078125 C 38.953125 -123.660156 42.894531 -124.453125 47.46875 -124.453125 L 62.484375 -124.453125 L 62.484375 -111.703125 L 50.984375 -111.703125 C 47.929688 -111.703125 45.304688 -110.957031 43.109375 -109.46875 C 40.910156 -107.976562 39.222656 -105.957031 38.046875 -103.40625 C 36.878906 -100.851562 36.296875 -97.96875 36.296875 -94.75 L 36.296875 -89.65625 L 61.78125 -89.65625 L 61.78125 -76.46875 L 36.296875 -76.46875 Z M 36.296875 0 "/></g></g></g><g fill="#000000" fill-opacity="1"><g transform="translate(789.797753, 796.124911)"><g><path d="M 65.65625 0 L 49.125 0 C 45.726562 0 42.359375 -0.4375 39.015625 -1.3125 C 35.679688 -2.195312 32.648438 -3.8125 29.921875 -6.15625 C 27.203125 -8.5 25.019531 -11.851562 23.375 -16.21875 C 21.738281 -20.582031 20.921875 -26.25 20.921875 -33.21875 L 20.921875 -76.375 L 0.96875 -76.375 L 0.96875 -89.65625 L 20.921875 -89.65625 L 20.921875 -116.28125 L 36.03125 -116.375 L 36.03125 -89.65625 L 65.65625 -89.65625 L 65.65625 -76.375 L 36.03125 -76.375 L 36.03125 -32.515625 C 36.03125 -28.359375 36.484375 -24.972656 37.390625 -22.359375 C 38.304688 -19.753906 39.539062 -17.765625 41.09375 -16.390625 C 42.644531 -15.015625 44.367188 -14.078125 46.265625 -13.578125 C 48.171875 -13.078125 50.125 -12.828125 52.125 -12.828125 L 65.65625 -12.828125 Z M 65.65625 0 "/></g></g></g><g fill="#000000" fill-opacity="1"><g transform="translate(850.021823, 796.124911)"><g><path d="M 53.53125 2.546875 C 45.4375 2.546875 38.429688 1.476562 32.515625 -0.65625 C 26.597656 -2.800781 21.71875 -5.660156 17.875 -9.234375 C 14.039062 -12.804688 11.203125 -16.800781 9.359375 -21.21875 C 7.515625 -25.644531 6.59375 -30.113281 6.59375 -34.625 L 22.15625 -34.625 C 22.15625 -30.46875 23.398438 -26.570312 25.890625 -22.9375 C 28.378906 -19.300781 31.953125 -16.367188 36.609375 -14.140625 C 41.265625 -11.921875 46.875 -10.8125 53.4375 -10.8125 C 63.632812 -10.8125 71.457031 -12.671875 76.90625 -16.390625 C 82.351562 -20.109375 85.078125 -25.660156 85.078125 -33.046875 C 85.078125 -37.734375 83.710938 -41.507812 80.984375 -44.375 C 78.265625 -47.25 74.5625 -49.492188 69.875 -51.109375 C 65.1875 -52.722656 59.851562 -53.96875 53.875 -54.84375 C 49.894531 -55.488281 45.820312 -56.320312 41.65625 -57.34375 C 37.5 -58.375 33.515625 -59.707031 29.703125 -61.34375 C 25.898438 -62.988281 22.488281 -65.023438 19.46875 -67.453125 C 16.445312 -69.890625 14.054688 -72.878906 12.296875 -76.421875 C 10.546875 -79.960938 9.671875 -84.140625 9.671875 -88.953125 C 9.671875 -93.398438 10.472656 -97.628906 12.078125 -101.640625 C 13.691406 -105.660156 16.226562 -109.207031 19.6875 -112.28125 C 23.144531 -115.351562 27.613281 -117.769531 33.09375 -119.53125 C 38.570312 -121.289062 45.207031 -122.171875 53 -122.171875 C 62.375 -122.171875 70.253906 -120.71875 76.640625 -117.8125 C 83.023438 -114.914062 87.859375 -110.914062 91.140625 -105.8125 C 94.421875 -100.71875 96.0625 -94.832031 96.0625 -88.15625 L 80.421875 -88.15625 C 80.421875 -92.132812 79.363281 -95.644531 77.25 -98.6875 C 75.144531 -101.738281 72.039062 -104.128906 67.9375 -105.859375 C 63.832031 -107.585938 58.796875 -108.453125 52.828125 -108.453125 C 47.429688 -108.453125 42.945312 -107.894531 39.375 -106.78125 C 35.800781 -105.675781 32.988281 -104.195312 30.9375 -102.34375 C 28.882812 -100.5 27.414062 -98.40625 26.53125 -96.0625 C 25.65625 -93.71875 25.21875 -91.316406 25.21875 -88.859375 C 25.21875 -84.703125 26.519531 -81.257812 29.125 -78.53125 C 31.738281 -75.800781 35.535156 -73.613281 40.515625 -71.96875 C 45.492188 -70.332031 51.5625 -69.019531 58.71875 -68.03125 C 62.695312 -67.382812 66.691406 -66.53125 70.703125 -65.46875 C 74.722656 -64.414062 78.535156 -63.054688 82.140625 -61.390625 C 85.742188 -59.722656 88.953125 -57.613281 91.765625 -55.0625 C 94.578125 -52.507812 96.785156 -49.429688 98.390625 -45.828125 C 100.003906 -42.234375 100.8125 -37.972656 100.8125 -33.046875 C 100.8125 -25.609375 98.90625 -19.222656 95.09375 -13.890625 C 91.289062 -8.554688 85.859375 -4.484375 78.796875 -1.671875 C 71.734375 1.140625 63.3125 2.546875 53.53125 2.546875 Z M 53.53125 2.546875 "/></g></g></g><g fill="#000000" fill-opacity="1"><g transform="translate(946.544673, 796.124911)"><g><path d="M 29.625 30.59375 L 14.5 30.59375 L 14.5 -89.65625 L 29 -89.65625 L 29 -70.484375 C 31.113281 -74.648438 33.867188 -78.359375 37.265625 -81.609375 C 40.660156 -84.859375 44.597656 -87.421875 49.078125 -89.296875 C 53.566406 -91.171875 58.390625 -92.109375 63.546875 -92.109375 C 69.867188 -92.109375 75.710938 -90.890625 81.078125 -88.453125 C 86.441406 -86.023438 91.128906 -82.644531 95.140625 -78.3125 C 99.148438 -73.976562 102.253906 -68.953125 104.453125 -63.234375 C 106.648438 -57.523438 107.75 -51.390625 107.75 -44.828125 C 107.75 -38.265625 106.632812 -32.109375 104.40625 -26.359375 C 102.1875 -20.617188 99.082031 -15.582031 95.09375 -11.25 C 91.113281 -6.914062 86.457031 -3.53125 81.125 -1.09375 C 75.789062 1.332031 69.988281 2.546875 63.71875 2.546875 C 58.800781 2.546875 54.113281 1.679688 49.65625 -0.046875 C 45.207031 -1.773438 41.238281 -4.234375 37.75 -7.421875 C 34.257812 -10.617188 31.460938 -14.382812 29.359375 -18.71875 L 29.625 -8.609375 Z M 61.078125 -11.515625 C 65.421875 -11.515625 69.492188 -12.316406 73.296875 -13.921875 C 77.109375 -15.535156 80.460938 -17.820312 83.359375 -20.78125 C 86.265625 -23.738281 88.550781 -27.253906 90.21875 -31.328125 C 91.882812 -35.398438 92.71875 -39.898438 92.71875 -44.828125 C 92.71875 -49.691406 91.894531 -54.144531 90.25 -58.1875 C 88.613281 -62.226562 86.347656 -65.726562 83.453125 -68.6875 C 80.554688 -71.644531 77.203125 -73.941406 73.390625 -75.578125 C 69.578125 -77.222656 65.472656 -78.046875 61.078125 -78.046875 C 56.691406 -78.046875 52.59375 -77.195312 48.78125 -75.5 C 44.96875 -73.800781 41.625 -71.425781 38.75 -68.375 C 35.882812 -65.332031 33.628906 -61.800781 31.984375 -57.78125 C 30.347656 -53.769531 29.53125 -49.453125 29.53125 -44.828125 C 29.53125 -40.078125 30.347656 -35.664062 31.984375 -31.59375 C 33.628906 -27.519531 35.914062 -23.988281 38.84375 -21 C 41.78125 -18.019531 45.148438 -15.691406 48.953125 -14.015625 C 52.765625 -12.347656 56.804688 -11.515625 61.078125 -11.515625 Z M 61.078125 -11.515625 "/></g></g></g><g fill="#000000" fill-opacity="1"><g transform="translate(1050.889833, 796.124911)"><g><path d="M 96.859375 -47.015625 C 96.859375 -46.253906 96.84375 -45.445312 96.8125 -44.59375 C 96.78125 -43.75 96.707031 -42.507812 96.59375 -40.875 L 22.234375 -40.875 C 22.878906 -34.894531 24.632812 -29.707031 27.5 -25.3125 C 30.375 -20.914062 33.976562 -17.53125 38.3125 -15.15625 C 42.65625 -12.789062 47.285156 -11.609375 52.203125 -11.609375 C 58.242188 -11.609375 63.398438 -12.910156 67.671875 -15.515625 C 71.953125 -18.117188 75.085938 -21.941406 77.078125 -26.984375 L 94.046875 -26.984375 C 92.753906 -22.878906 90.832031 -19.039062 88.28125 -15.46875 C 85.738281 -11.894531 82.664062 -8.773438 79.0625 -6.109375 C 75.457031 -3.441406 71.410156 -1.347656 66.921875 0.171875 C 62.441406 1.703125 57.65625 2.46875 52.5625 2.46875 C 46.050781 2.46875 40.023438 1.253906 34.484375 -1.171875 C 28.953125 -3.609375 24.117188 -6.992188 19.984375 -11.328125 C 15.859375 -15.671875 12.648438 -20.695312 10.359375 -26.40625 C 8.078125 -32.125 6.9375 -38.265625 6.9375 -44.828125 C 6.9375 -51.390625 8.078125 -57.523438 10.359375 -63.234375 C 12.648438 -68.953125 15.859375 -73.976562 19.984375 -78.3125 C 24.117188 -82.644531 28.953125 -86.039062 34.484375 -88.5 C 40.023438 -90.96875 46.050781 -92.203125 52.5625 -92.203125 C 59.007812 -92.203125 64.941406 -91 70.359375 -88.59375 C 75.773438 -86.1875 80.460938 -82.875 84.421875 -78.65625 C 88.378906 -74.4375 91.441406 -69.617188 93.609375 -64.203125 C 95.773438 -58.785156 96.859375 -53.054688 96.859375 -47.015625 Z M 22.9375 -54.234375 L 81.390625 -54.234375 C 81.148438 -57.390625 80.222656 -60.40625 78.609375 -63.28125 C 77.003906 -66.15625 74.882812 -68.691406 72.25 -70.890625 C 69.613281 -73.085938 66.582031 -74.8125 63.15625 -76.0625 C 59.726562 -77.320312 56.109375 -77.953125 52.296875 -77.953125 C 47.835938 -77.953125 43.585938 -77.046875 39.546875 -75.234375 C 35.503906 -73.421875 32.019531 -70.753906 29.09375 -67.234375 C 26.164062 -63.722656 24.113281 -59.390625 22.9375 -54.234375 Z M 22.9375 -54.234375 "/></g></g></g><g fill="#000000" fill-opacity="1"><g transform="translate(1142.842416, 796.124911)"><g><path d="M 29.625 0 L 14.5 0 L 14.5 -89.65625 L 29 -89.65625 L 29 -72.328125 C 30.695312 -76.203125 33.171875 -79.628906 36.421875 -82.609375 C 39.679688 -85.597656 43.507812 -87.941406 47.90625 -89.640625 C 52.300781 -91.347656 57.015625 -92.203125 62.046875 -92.203125 C 73.941406 -92.203125 82.960938 -88.523438 89.109375 -81.171875 C 95.265625 -73.816406 98.34375 -62.960938 98.34375 -48.609375 L 98.34375 0 L 83.234375 0 L 83.234375 -48.34375 C 83.234375 -58.65625 81.003906 -66.179688 76.546875 -70.921875 C 72.097656 -75.671875 65.976562 -78.046875 58.1875 -78.046875 C 54.4375 -78.046875 50.847656 -77.34375 47.421875 -75.9375 C 43.992188 -74.53125 40.945312 -72.476562 38.28125 -69.78125 C 35.613281 -67.09375 33.503906 -63.84375 31.953125 -60.03125 C 30.398438 -56.21875 29.625 -51.910156 29.625 -47.109375 Z M 29.625 0 "/></g></g></g><g fill="#000000" fill-opacity="1"><g transform="translate(1244.199295, 796.124911)"><g><path d="M 51.0625 2.546875 C 44.738281 2.546875 38.894531 1.332031 33.53125 -1.09375 C 28.164062 -3.53125 23.488281 -6.914062 19.5 -11.25 C 15.519531 -15.582031 12.429688 -20.617188 10.234375 -26.359375 C 8.035156 -32.109375 6.9375 -38.265625 6.9375 -44.828125 C 6.9375 -51.390625 8.019531 -57.523438 10.1875 -63.234375 C 12.363281 -68.953125 15.425781 -73.976562 19.375 -78.3125 C 23.332031 -82.644531 28.003906 -86.039062 33.390625 -88.5 C 38.785156 -90.96875 44.707031 -92.203125 51.15625 -92.203125 C 56.78125 -92.203125 61.847656 -91.160156 66.359375 -89.078125 C 70.867188 -86.992188 74.75 -84.328125 78 -81.078125 C 81.25 -77.828125 83.726562 -74.382812 85.4375 -70.75 L 85.078125 -79.453125 L 85.078125 -123.75 L 100.203125 -123.75 L 100.203125 0 L 85.6875 0 L 85.6875 -19.078125 C 83.8125 -15.035156 81.191406 -11.382812 77.828125 -8.125 C 74.460938 -4.875 70.519531 -2.28125 66 -0.34375 C 61.488281 1.582031 56.507812 2.546875 51.0625 2.546875 Z M 53.53125 -11.515625 C 57.925781 -11.515625 62.039062 -12.363281 65.875 -14.0625 C 69.707031 -15.757812 73.070312 -18.117188 75.96875 -21.140625 C 78.875 -24.160156 81.144531 -27.691406 82.78125 -31.734375 C 84.425781 -35.773438 85.25 -40.140625 85.25 -44.828125 C 85.25 -49.515625 84.425781 -53.863281 82.78125 -57.875 C 81.144531 -61.882812 78.875 -65.398438 75.96875 -68.421875 C 73.070312 -71.441406 69.707031 -73.800781 65.875 -75.5 C 62.039062 -77.195312 57.925781 -78.046875 53.53125 -78.046875 C 49.132812 -78.046875 45.015625 -77.207031 41.171875 -75.53125 C 37.335938 -73.863281 33.984375 -71.535156 31.109375 -68.546875 C 28.242188 -65.566406 26.003906 -62.050781 24.390625 -58 C 22.773438 -53.957031 21.96875 -49.566406 21.96875 -44.828125 C 21.96875 -40.140625 22.757812 -35.773438 24.34375 -31.734375 C 25.925781 -27.691406 28.140625 -24.160156 30.984375 -21.140625 C 33.828125 -18.117188 37.164062 -15.757812 41 -14.0625 C 44.84375 -12.363281 49.019531 -11.515625 53.53125 -11.515625 Z M 53.53125 -11.515625 "/></g></g></g></svg>